<svg width="86" height="86" viewBox="0 0 86 86" fill="none" xmlns="http://www.w3.org/2000/svg">
<path d="M42.78 0.153809C19.2929 0.153809 0.153748 19.293 0.153748 42.7801C0.153748 66.2671 19.2929 85.4063 42.78 85.4063C66.2671 85.4063 85.4062 66.2671 85.4062 42.7801C85.4062 19.293 66.2671 0.153809 42.78 0.153809ZM57.1024 52.5841C58.3386 53.8203 58.3386 55.8663 57.1024 57.1025C56.463 57.7419 55.6531 58.0403 54.8432 58.0403C54.0333 58.0403 53.2234 57.7419 52.584 57.1025L42.78 47.2985L32.976 57.1025C32.3366 57.7419 31.5267 58.0403 30.7168 58.0403C29.9069 58.0403 29.097 57.7419 28.4576 57.1025C27.2214 55.8663 27.2214 53.8203 28.4576 52.5841L38.2616 42.7801L28.4576 32.976C27.2214 31.7399 27.2214 29.6938 28.4576 28.4577C29.6937 27.2215 31.7398 27.2215 32.976 28.4577L42.78 38.2617L52.584 28.4577C53.8202 27.2215 55.8662 27.2215 57.1024 28.4577C58.3386 29.6938 58.3386 31.7399 57.1024 32.976L47.2984 42.7801L57.1024 52.5841Z" fill="#DF3F3F"/>
</svg>
